# xmcd
#
# Track frame offsets: 
#        150
#        12470
#        25587
#        37344
#        52259
#        65373
#        81304
#
# Disc length: 1269 seconds
#
# Revision: 0
# Processed by: cddbd v1.5.2PL0 Copyright (c) Steve Scherf et al.
# Submitted via: ExactAudioCopy v1.3
#
DISCID=5d04f307
DTITLE=Sonia Leigh - Walking In The Moonlight
DYEAR=2017
DGENRE=Country
TTITLE0=Jack Is Back
TTITLE1=Put It In Your Pocket
TTITLE2=Walking In The Moonlight
TTITLE3=Reason To The Worry
TTITLE4=We Know
TTITLE5=When We Are Alone
TTITLE6=Booty Call
EXTD=
EXTT0=
EXTT1=
EXTT2=
EXTT3=
EXTT4=
EXTT5=
EXTT6=
PLAYORDER=
